<svg xmlns="http://www.w3.org/2000/svg" xmlns:xlink="http://www.w3.org/1999/xlink" width="500" zoomAndPan="magnify" viewBox="0 0 375 374.999991" height="500" preserveAspectRatio="xMidYMid meet" version="1.0"><defs><clipPath id="34b1d737d5"><path d="M 12 93.203125 L 363 93.203125 L 363 281.453125 L 12 281.453125 Z M 12 93.203125 " clip-rule="nonzero"/></clipPath></defs><g clip-path="url(#34b1d737d5)"><path fill="#000000" d="M 360.675781 221.101562 C 352.828125 200.203125 335.839844 184.332031 315.296875 177.347656 C 327.25 169.605469 335.175781 156.175781 335.175781 140.929688 C 335.175781 117.007812 315.667969 97.546875 291.695312 97.546875 C 267.722656 97.546875 248.21875 117.007812 248.21875 140.929688 C 248.21875 156.160156 256.125 169.582031 268.058594 177.324219 C 255.953125 181.417969 245.023438 188.617188 236.445312 198.3125 C 228.875 193.011719 220.523438 188.996094 211.726562 186.382812 C 226.964844 177.847656 237.28125 161.566406 237.28125 142.925781 C 237.28125 115.464844 214.894531 93.125 187.375 93.125 C 159.859375 93.125 137.46875 115.464844 137.46875 142.925781 C 137.46875 161.566406 147.789062 177.847656 163.027344 186.382812 C 154.226562 188.996094 145.871094 193.015625 138.304688 198.308594 C 129.730469 188.617188 118.800781 181.417969 106.695312 177.324219 C 118.628906 169.582031 126.535156 156.160156 126.535156 140.929688 C 126.535156 117.007812 107.03125 97.546875 83.058594 97.546875 C 59.082031 97.546875 39.578125 117.007812 39.578125 140.929688 C 39.578125 156.175781 47.503906 169.605469 59.453125 177.347656 C 38.910156 184.335938 21.925781 200.203125 14.074219 221.101562 C 8.878906 234.941406 15.832031 250.523438 29.570312 255.839844 C 52.507812 264.714844 79.15625 271.46875 108.785156 275.902344 C 133.9375 279.632812 160.382812 281.527344 187.375 281.527344 C 214.371094 281.527344 240.8125 279.632812 265.980469 275.902344 C 295.597656 271.46875 322.246094 264.714844 345.179688 255.839844 C 358.921875 250.523438 365.871094 234.941406 360.675781 221.101562 Z M 264.675781 140.929688 C 264.675781 126.0625 276.796875 113.96875 291.695312 113.96875 C 306.59375 113.96875 318.714844 126.0625 318.714844 140.929688 C 318.714844 155.792969 306.59375 167.886719 291.695312 167.886719 C 276.796875 167.886719 264.675781 155.792969 264.675781 140.929688 Z M 153.929688 142.925781 C 153.929688 124.519531 168.933594 109.550781 187.375 109.550781 C 205.820312 109.550781 220.824219 124.519531 220.824219 142.925781 C 220.824219 161.328125 205.820312 176.296875 187.375 176.296875 C 168.933594 176.296875 153.929688 161.328125 153.929688 142.925781 Z M 56.039062 140.929688 C 56.039062 126.066406 68.160156 113.972656 83.058594 113.972656 C 97.953125 113.972656 110.074219 126.066406 110.074219 140.929688 C 110.074219 155.796875 97.953125 167.890625 83.058594 167.890625 C 68.160156 167.890625 56.039062 155.796875 56.039062 140.929688 Z M 102.355469 258.246094 C 77.484375 254.03125 55.039062 248.082031 35.523438 240.527344 C 30.148438 238.445312 27.441406 232.316406 29.488281 226.863281 C 37.800781 204.726562 59.328125 189.855469 83.058594 189.855469 C 99.476562 189.855469 114.992188 196.894531 125.785156 208.972656 C 112.773438 222.382812 104.550781 239.695312 102.355469 258.246094 Z M 187.375 265.101562 C 163.839844 265.101562 140.75 263.621094 118.640625 260.699219 C 120.550781 243.417969 128.929688 227.429688 142.277344 216.019531 C 154.8125 205.21875 170.828125 199.269531 187.375 199.269531 C 203.921875 199.269531 219.941406 205.21875 232.5 216.039062 C 245.824219 227.433594 254.203125 243.417969 256.113281 260.699219 C 233.996094 263.621094 210.914062 265.101562 187.375 265.101562 Z M 339.230469 240.527344 C 319.714844 248.082031 297.261719 254.03125 272.394531 258.246094 C 270.203125 239.6875 261.976562 222.371094 248.96875 208.972656 C 259.761719 196.894531 275.277344 189.855469 291.695312 189.855469 C 315.421875 189.855469 336.953125 204.726562 345.265625 226.863281 C 347.3125 232.316406 344.605469 238.445312 339.230469 240.527344 Z M 339.230469 240.527344 " fill-opacity="1" fill-rule="nonzero"/></g></svg>