<svg xmlns="http://www.w3.org/2000/svg" xmlns:xlink="http://www.w3.org/1999/xlink" width="500" zoomAndPan="magnify" viewBox="0 0 375 374.999991" height="500" preserveAspectRatio="xMidYMid meet" version="1.0"><defs><clipPath id="4f6803c25d"><path d="M 31 6 L 344 6 L 344 368.917969 L 31 368.917969 Z M 31 6 " clip-rule="nonzero"/></clipPath></defs><g clip-path="url(#4f6803c25d)"><path fill="#000000" d="M 315.191406 90.066406 C 315.660156 88.941406 316.566406 87.996094 317.789062 87.5 C 319.273438 86.898438 320.886719 87.101562 322.144531 87.90625 L 341.226562 98.910156 C 343.496094 100.222656 344.269531 103.125 342.957031 105.386719 C 341.644531 107.65625 338.734375 108.429688 336.46875 107.117188 L 328.269531 102.390625 C 329.472656 106.449219 330.484375 110.589844 331.304688 114.808594 C 332.921875 123.148438 333.773438 131.742188 333.773438 140.503906 C 333.773438 155.128906 331.421875 169.21875 327.082031 182.425781 C 323.234375 194.121094 317.828125 205.109375 311.109375 215.128906 L 311.160156 215.164062 C 311.511719 215.382812 311.835938 215.648438 312.128906 215.972656 L 312.480469 216.34375 C 315.03125 219.242188 315.917969 222.453125 315.144531 225.984375 C 314.503906 228.902344 312.65625 231.824219 309.601562 234.742188 L 308.753906 235.535156 C 300.8125 245.480469 283.5 261 256.816406 282.082031 L 256.445312 282.390625 C 244.984375 291.039062 229.246094 297.957031 209.242188 303.125 C 190.039062 308.089844 166.84375 311.464844 139.660156 313.261719 L 134.929688 318.972656 L 135.890625 319.757812 C 139.1875 322.441406 141.089844 326.234375 141.488281 330.171875 C 141.886719 334.085938 140.792969 338.167969 138.105469 341.457031 L 120.519531 362.992188 C 117.828125 366.285156 114.03125 368.1875 110.089844 368.582031 C 106.164062 368.984375 102.082031 367.882812 98.789062 365.203125 L 36.894531 314.789062 C 33.59375 312.101562 31.695312 308.3125 31.292969 304.371094 C 30.898438 300.457031 31.992188 296.375 34.675781 293.089844 L 52.027344 271.84375 C 52.183594 271.617188 52.363281 271.40625 52.5625 271.199219 C 55.234375 268.125 58.894531 266.347656 62.695312 265.960938 C 66.476562 265.578125 70.414062 266.585938 73.640625 269.058594 C 73.871094 269.214844 74.085938 269.386719 74.289062 269.578125 L 76.144531 271.09375 L 98.332031 245.398438 C 100.367188 242.101562 102.632812 239.121094 105.136719 236.457031 C 103.617188 234.96875 102.128906 233.441406 100.671875 231.871094 C 98.109375 229.117188 95.628906 226.207031 93.242188 223.15625 C 91.628906 221.097656 92 218.121094 94.058594 216.515625 C 96.121094 214.902344 99.105469 215.269531 100.71875 217.328125 C 102.871094 220.082031 105.179688 222.78125 107.625 225.414062 C 109.125 227.03125 110.679688 228.609375 112.277344 230.152344 C 113.707031 229.121094 115.1875 228.164062 116.722656 227.277344 C 124.210938 222.984375 132.933594 220.53125 142.890625 219.9375 C 158.230469 219.9375 174.558594 219.425781 190.050781 218.839844 L 190.050781 191.328125 C 187.0625 184.429688 183.378906 178.949219 179.21875 174.417969 C 176.8125 176.683594 174.097656 178.394531 171.125 179.6875 C 164.789062 182.4375 157.492188 183.105469 149.65625 183.164062 C 139.261719 183.246094 129.957031 181.117188 121.96875 177.257812 C 112.042969 172.464844 104.164062 165.019531 98.746094 155.835938 C 93.386719 146.753906 90.457031 135.964844 90.371094 124.382812 C 90.28125 112.925781 92.972656 100.6875 98.84375 88.5625 C 99.980469 86.203125 102.824219 85.21875 105.183594 86.355469 C 106.050781 86.769531 106.730469 87.414062 107.191406 88.179688 C 109.515625 91.695312 112.617188 94.507812 116.484375 96.628906 C 120.542969 98.851562 125.488281 100.324219 131.320312 101.042969 C 131.511719 101.066406 131.703125 101.101562 131.886719 101.144531 C 154.496094 104.75 170.445312 111.539062 179.71875 121.503906 C 189.554688 132.074219 191.9375 145.75 186.867188 162.527344 C 186.808594 162.722656 186.742188 162.90625 186.664062 163.085938 C 186.160156 164.339844 185.621094 165.515625 185.042969 166.621094 C 188.59375 170.289062 191.882812 174.550781 194.8125 179.636719 C 197.742188 174.550781 201.027344 170.289062 204.578125 166.617188 C 204 165.515625 203.457031 164.339844 202.960938 163.089844 C 202.882812 162.90625 202.808594 162.722656 202.753906 162.527344 C 197.683594 145.75 200.066406 132.074219 209.898438 121.503906 C 219.175781 111.539062 235.125 104.75 257.734375 101.144531 C 257.914062 101.101562 258.105469 101.066406 258.300781 101.042969 C 264.128906 100.324219 269.078125 98.851562 273.136719 96.628906 C 277.003906 94.507812 280.105469 91.695312 282.429688 88.179688 C 282.890625 87.414062 283.570312 86.769531 284.433594 86.355469 C 286.792969 85.21875 289.636719 86.203125 290.777344 88.5625 C 296.644531 100.6875 299.335938 112.925781 299.25 124.382812 C 299.160156 135.964844 296.234375 146.753906 290.875 155.835938 C 285.457031 165.019531 277.578125 172.464844 267.652344 177.257812 C 259.664062 181.117188 250.355469 183.246094 239.964844 183.164062 C 232.125 183.105469 224.832031 182.4375 218.5 179.6875 C 215.523438 178.394531 212.804688 176.679688 210.398438 174.417969 C 206.242188 178.949219 202.554688 184.425781 199.570312 191.324219 L 199.570312 218.808594 C 204.488281 219.140625 208.578125 220.113281 211.835938 221.734375 C 216.964844 224.28125 220.074219 228.246094 221.15625 233.621094 C 221.285156 234.121094 221.339844 234.640625 221.300781 235.183594 C 220.957031 240.082031 218.867188 244.011719 215.050781 246.972656 C 211.757812 249.523438 207.199219 251.207031 201.382812 252.027344 C 201.179688 252.066406 200.980469 252.097656 200.769531 252.113281 L 199.570312 252.210938 L 199.570312 261.023438 L 210.695312 260.335938 C 216.210938 259.757812 221.992188 258.320312 228.027344 256.03125 C 234.167969 253.699219 240.550781 250.492188 247.160156 246.410156 L 284.191406 219.953125 C 289.257812 216.203125 293.925781 213.867188 298.191406 212.957031 C 299.28125 212.726562 300.335938 212.578125 301.371094 212.527344 C 308.472656 202.503906 314.132812 191.390625 318.042969 179.496094 C 322.070312 167.242188 324.25 154.136719 324.25 140.503906 C 324.25 132.296875 323.464844 124.300781 321.96875 116.589844 C 321.171875 112.480469 320.171875 108.4375 318.976562 104.476562 L 314.621094 113.871094 C 313.523438 116.25 310.695312 117.289062 308.316406 116.191406 C 305.933594 115.097656 304.894531 112.277344 305.992188 109.898438 Z M 190.050781 252.992188 L 181.875 253.660156 L 181.875 253.648438 L 181.390625 253.660156 C 179.058594 253.601562 177.222656 253.984375 175.886719 254.8125 C 174.820312 255.472656 173.976562 256.519531 173.359375 257.941406 C 173.308594 259.28125 173.574219 260.21875 174.160156 260.757812 C 175.109375 261.632812 176.921875 262.128906 179.597656 262.246094 L 190.050781 261.605469 Z M 195.261719 228.152344 C 195.113281 228.167969 194.960938 228.171875 194.8125 228.171875 C 194.699219 228.171875 194.589844 228.171875 194.480469 228.164062 L 193.71875 228.183594 L 143.449219 229.398438 C 134.957031 229.914062 127.621094 231.941406 121.449219 235.484375 C 119.273438 236.730469 117.230469 238.179688 115.316406 239.820312 C 115.191406 239.941406 115.058594 240.054688 114.925781 240.164062 C 111.625 243.066406 108.730469 246.570312 106.238281 250.660156 C 106.074219 250.929688 105.890625 251.175781 105.683594 251.398438 L 83.503906 277.085938 L 103.992188 293.773438 L 127.5625 312.972656 L 133.636719 305.632812 C 134.554688 304.523438 135.871094 303.9375 137.207031 303.910156 C 164.613281 302.191406 187.835938 298.867188 206.863281 293.953125 C 225.617188 289.101562 240.238281 282.726562 250.71875 274.8125 L 250.929688 274.667969 C 277.375 253.773438 294.269531 238.644531 301.601562 229.304688 C 301.789062 229.0625 301.988281 228.851562 302.203125 228.660156 L 302.195312 228.648438 L 303.019531 227.910156 C 304.675781 226.324219 305.621094 225.015625 305.851562 223.980469 C 305.925781 223.621094 305.8125 223.230469 305.5 222.816406 C 304.023438 221.988281 302.238281 221.796875 300.160156 222.242188 C 297.214844 222.867188 293.75 224.664062 289.765625 227.621094 L 252.589844 254.1875 L 252.164062 254.453125 C 245.003906 258.875 238.074219 262.359375 231.375 264.90625 C 224.527344 267.5 217.878906 269.128906 211.441406 269.785156 L 195.453125 270.773438 C 195.242188 270.800781 195.03125 270.8125 194.8125 270.8125 L 194.757812 270.8125 L 179.992188 271.726562 C 179.753906 271.738281 179.519531 271.734375 179.292969 271.710938 C 174.234375 271.503906 170.375 270.175781 167.726562 267.742188 C 164.726562 264.984375 163.472656 261.191406 163.960938 256.378906 C 164 255.96875 164.089844 255.582031 164.226562 255.214844 C 165.601562 251.476562 167.828125 248.648438 170.90625 246.753906 C 173.746094 245 177.1875 244.140625 181.21875 244.1875 L 194.191406 243.121094 C 194.339844 243.105469 194.488281 243.089844 194.636719 243.085938 L 200.082031 242.640625 C 204.210938 242.0625 207.269531 241.003906 209.246094 239.472656 C 210.667969 238.371094 211.507812 236.90625 211.761719 235.074219 C 211.207031 232.945312 209.828125 231.328125 207.632812 230.234375 C 204.769531 228.816406 200.640625 228.121094 195.261719 228.152344 Z M 83.324219 190.9375 L 92.527344 171.109375 C 93.625 168.730469 92.585938 165.910156 90.203125 164.8125 C 87.820312 163.71875 84.996094 164.757812 83.902344 167.136719 L 79.542969 176.527344 C 78.347656 172.566406 77.34375 168.527344 76.546875 164.417969 C 75.050781 156.707031 74.265625 148.710938 74.265625 140.5 C 74.265625 106.035156 88.257812 74.824219 110.875 52.238281 C 133.488281 29.652344 164.742188 15.679688 199.257812 15.679688 C 218.898438 15.679688 237.472656 20.199219 254 28.25 C 271.1875 36.625 286.15625 48.804688 297.800781 63.675781 C 299.414062 65.734375 302.394531 66.101562 304.457031 64.492188 C 306.519531 62.882812 306.886719 59.90625 305.277344 57.847656 C 292.722656 41.8125 276.621094 28.703125 258.164062 19.707031 C 240.367188 11.039062 220.378906 6.171875 199.257812 6.171875 C 162.113281 6.171875 128.484375 21.207031 104.144531 45.519531 C 79.804688 69.828125 64.746094 103.410156 64.746094 140.5 C 64.746094 149.265625 65.597656 157.855469 67.214844 166.199219 C 68.03125 170.414062 69.046875 174.554688 70.246094 178.613281 L 62.050781 173.886719 C 59.78125 172.574219 56.875 173.351562 55.5625 175.613281 C 54.25 177.878906 55.023438 180.785156 57.289062 182.09375 L 76.371094 193.101562 C 77.628906 193.902344 79.238281 194.105469 80.726562 193.503906 C 81.953125 193.011719 82.855469 192.0625 83.324219 190.9375 Z M 268.5 121.722656 C 270.109375 119.648438 273.101562 119.277344 275.171875 120.886719 C 277.246094 122.496094 277.621094 125.480469 276.007812 127.550781 C 265.351562 141.246094 252.269531 148.007812 239.34375 154.683594 C 231.734375 158.613281 224.179688 162.515625 217.40625 167.917969 C 218.882812 169.222656 220.523438 170.230469 222.292969 170.996094 C 227.191406 173.125 233.308594 173.644531 240 173.695312 C 248.886719 173.761719 256.789062 171.96875 263.523438 168.714844 C 271.726562 164.753906 278.230469 158.613281 282.691406 151.046875 C 287.21875 143.375 289.6875 134.222656 289.769531 124.347656 C 289.828125 116.425781 288.351562 108.035156 285.171875 99.554688 C 282.96875 101.632812 280.480469 103.429688 277.710938 104.945312 C 272.5625 107.765625 266.476562 109.605469 259.453125 110.472656 L 259.238281 110.492188 C 238.792969 113.75 224.660156 119.574219 216.851562 127.964844 C 209.53125 135.832031 207.851562 146.394531 211.8125 159.644531 L 211.96875 160.019531 C 219.164062 154.429688 227.050781 150.355469 234.996094 146.253906 C 246.972656 140.066406 259.101562 133.800781 268.5 121.722656 Z M 113.613281 127.550781 C 112 125.480469 112.378906 122.496094 114.449219 120.886719 C 116.523438 119.277344 119.507812 119.648438 121.121094 121.722656 C 130.515625 133.800781 142.648438 140.066406 154.625 146.257812 C 162.570312 150.359375 170.453125 154.433594 177.652344 160.019531 L 177.808594 159.644531 C 181.765625 146.394531 180.085938 135.832031 172.769531 127.964844 C 164.957031 119.574219 150.824219 113.75 130.378906 110.492188 L 130.167969 110.472656 C 123.140625 109.605469 117.054688 107.765625 111.90625 104.945312 C 109.140625 103.429688 106.652344 101.632812 104.445312 99.554688 C 101.265625 108.035156 99.789062 116.425781 99.851562 124.34375 C 99.925781 134.21875 102.398438 143.375 106.925781 151.046875 C 111.390625 158.613281 117.894531 164.753906 126.097656 168.714844 C 132.832031 171.96875 140.734375 173.761719 149.617188 173.695312 C 156.3125 173.644531 162.429688 173.125 167.328125 170.996094 C 169.09375 170.230469 170.734375 169.222656 172.214844 167.917969 C 165.4375 162.515625 157.886719 158.613281 150.273438 154.683594 C 137.351562 148.007812 124.265625 141.246094 113.613281 127.550781 Z M 113.160156 357.015625 L 130.746094 335.480469 C 131.777344 334.210938 132.203125 332.628906 132.042969 331.101562 C 131.894531 329.589844 131.164062 328.132812 129.902344 327.109375 L 125.242188 323.3125 L 109.171875 310.226562 L 68.007812 276.695312 C 66.738281 275.660156 65.152344 275.242188 63.621094 275.394531 C 62.109375 275.546875 60.65625 276.273438 59.628906 277.53125 L 42.039062 299.066406 C 41.003906 300.332031 40.582031 301.917969 40.738281 303.445312 C 40.890625 304.957031 41.617188 306.410156 42.878906 307.4375 L 104.773438 357.851562 C 106.042969 358.886719 107.632812 359.304688 109.160156 359.152344 C 110.675781 359 112.128906 358.269531 113.160156 357.015625 Z M 113.160156 357.015625 " fill-opacity="1" fill-rule="evenodd"/></g></svg>