<svg xmlns="http://www.w3.org/2000/svg" xmlns:xlink="http://www.w3.org/1999/xlink" width="500" zoomAndPan="magnify" viewBox="0 0 375 374.999991" height="500" preserveAspectRatio="xMidYMid meet" version="1.0"><defs><g/><clipPath id="bcff737221"><rect x="0" width="363" y="0" height="229"/></clipPath></defs><g transform="matrix(1, 0, 0, 1, 5, 59)"><g clip-path="url(#bcff737221)"><g fill="#000000" fill-opacity="1"><g transform="translate(72.498378, 200.759198)"><g><path d="M 83.125 -33.90625 C 83.125 -27.5625 81.765625 -21.769531 79.046875 -16.53125 C 76.335938 -11.300781 72.5 -7.097656 67.53125 -3.921875 C 62.570312 -0.753906 56.695312 0.828125 49.90625 0.828125 C 47.695312 0.828125 45.625 0.390625 43.6875 -0.484375 C 41.757812 -1.359375 40.289062 -2.300781 39.28125 -3.3125 L 39.28125 23.4375 C 39.28125 24.257812 39.023438 24.96875 38.515625 25.5625 C 38.015625 26.164062 37.257812 26.46875 36.25 26.46875 L 12.546875 26.46875 C 11.898438 26.46875 11.1875 26.191406 10.40625 25.640625 C 9.625 25.085938 9.234375 24.351562 9.234375 23.4375 L 9.234375 -63.6875 C 9.234375 -64.332031 9.320312 -64.90625 9.5 -65.40625 C 9.6875 -65.914062 10.054688 -66.351562 10.609375 -66.71875 C 10.984375 -67.082031 11.441406 -67.3125 11.984375 -67.40625 C 12.535156 -67.5 13 -67.546875 13.375 -67.546875 L 28.390625 -67.546875 C 29.953125 -67.546875 30.984375 -67.039062 31.484375 -66.03125 C 31.992188 -65.019531 32.664062 -63.179688 33.5 -60.515625 C 34.507812 -61.523438 35.679688 -62.648438 37.015625 -63.890625 C 38.347656 -65.128906 40.140625 -66.226562 42.390625 -67.1875 C 44.640625 -68.15625 47.554688 -68.640625 51.140625 -68.640625 C 57.109375 -68.640625 62.503906 -67.054688 67.328125 -63.890625 C 72.160156 -60.722656 76 -56.519531 78.84375 -51.28125 C 81.695312 -46.039062 83.125 -40.25 83.125 -33.90625 Z M 36.9375 -34.328125 C 36.9375 -31.753906 37.671875 -29.59375 39.140625 -27.84375 C 40.617188 -26.09375 42.597656 -25.21875 45.078125 -25.21875 C 47.554688 -25.21875 49.550781 -26.09375 51.0625 -27.84375 C 52.582031 -29.59375 53.34375 -31.753906 53.34375 -34.328125 C 53.34375 -36.992188 52.582031 -39.148438 51.0625 -40.796875 C 49.550781 -42.453125 47.554688 -43.28125 45.078125 -43.28125 C 42.597656 -43.28125 40.617188 -42.453125 39.140625 -40.796875 C 37.671875 -39.148438 36.9375 -36.992188 36.9375 -34.328125 Z M 36.9375 -34.328125 "/></g></g></g><g fill="#000000" fill-opacity="1"><g transform="translate(147.203334, 200.759198)"><g><path d="M 51.6875 -22.46875 L 51.828125 -22.46875 C 52.015625 -22.65625 52.242188 -22.75 52.515625 -22.75 C 52.796875 -22.75 52.976562 -22.75 53.0625 -22.75 C 53.613281 -22.75 54.164062 -22.378906 54.71875 -21.640625 L 62.859375 -9.78125 L 62.859375 -9.921875 C 63.410156 -9.367188 63.6875 -8.769531 63.6875 -8.125 C 63.6875 -7.300781 63.429688 -6.613281 62.921875 -6.0625 C 62.421875 -5.507812 61.847656 -5.050781 61.203125 -4.6875 C 58.347656 -2.664062 55.175781 -1.171875 51.6875 -0.203125 C 48.195312 0.753906 44.566406 1.234375 40.796875 1.234375 C 34.460938 1.234375 28.675781 -0.300781 23.4375 -3.375 C 18.195312 -6.457031 14.015625 -10.640625 10.890625 -15.921875 C 7.765625 -21.203125 6.203125 -27.109375 6.203125 -33.640625 C 6.203125 -39.796875 7.671875 -45.515625 10.609375 -50.796875 C 13.554688 -56.078125 17.554688 -60.328125 22.609375 -63.546875 C 27.660156 -66.765625 33.40625 -68.375 39.84375 -68.375 C 45.71875 -68.375 51.066406 -67.015625 55.890625 -64.296875 C 60.710938 -61.585938 64.664062 -57.9375 67.75 -53.34375 C 70.832031 -48.75 72.691406 -43.507812 73.328125 -37.625 C 73.234375 -33.957031 72.40625 -31.019531 70.84375 -28.8125 C 69.289062 -26.601562 66.304688 -25.5 61.890625 -25.5 L 31.5625 -25.5 C 32.664062 -23.75 34.203125 -22.320312 36.171875 -21.21875 C 38.148438 -20.125 39.96875 -19.578125 41.625 -19.578125 C 43.644531 -19.578125 45.617188 -19.894531 47.546875 -20.53125 C 49.484375 -21.175781 50.863281 -21.820312 51.6875 -22.46875 Z M 41.078125 -47.28125 C 38.773438 -47.28125 36.84375 -46.726562 35.28125 -45.625 C 33.71875 -44.519531 32.570312 -43.1875 31.84375 -41.625 L 50.3125 -41.625 C 49.570312 -42.820312 48.488281 -44.0625 47.0625 -45.34375 C 45.644531 -46.632812 43.648438 -47.28125 41.078125 -47.28125 Z M 41.078125 -47.28125 "/></g></g></g><g fill="#000000" fill-opacity="1"><g transform="translate(212.397812, 200.759198)"><g><path d="M 56.234375 -3.03125 L 56.234375 -33.765625 C 56.234375 -36.335938 55.546875 -38.472656 54.171875 -40.171875 C 52.796875 -41.878906 50.867188 -42.734375 48.390625 -42.734375 C 46.085938 -42.734375 43.832031 -41.972656 41.625 -40.453125 C 39.425781 -38.941406 38.234375 -36.988281 38.046875 -34.59375 L 38.046875 -3.03125 C 38.046875 -2.113281 37.675781 -1.378906 36.9375 -0.828125 C 36.207031 -0.273438 35.472656 0 34.734375 0 L 12.265625 0 C 11.347656 0 10.613281 -0.296875 10.0625 -0.890625 C 9.507812 -1.492188 9.234375 -2.207031 9.234375 -3.03125 L 9.234375 -63.546875 C 9.234375 -64.921875 9.691406 -65.929688 10.609375 -66.578125 C 11.066406 -66.941406 11.546875 -67.171875 12.046875 -67.265625 C 12.554688 -67.359375 13 -67.40625 13.375 -67.40625 L 28.390625 -67.40625 C 30.328125 -67.40625 31.613281 -66.710938 32.25 -65.328125 C 32.894531 -63.953125 33.539062 -61.976562 34.1875 -59.40625 C 35.195312 -60.695312 36.800781 -62.050781 39 -63.46875 C 41.207031 -64.894531 43.894531 -66.113281 47.0625 -67.125 C 50.238281 -68.132812 53.710938 -68.640625 57.484375 -68.640625 C 63.359375 -68.640625 68.085938 -67.71875 71.671875 -65.875 C 75.265625 -64.039062 78.023438 -61.515625 79.953125 -58.296875 C 81.878906 -55.085938 83.1875 -51.390625 83.875 -47.203125 C 84.5625 -43.023438 84.90625 -38.59375 84.90625 -33.90625 L 84.90625 -3.03125 C 84.90625 -2.113281 84.535156 -1.378906 83.796875 -0.828125 C 83.066406 -0.273438 82.335938 0 81.609375 0 L 59.265625 0 C 58.347656 0 57.613281 -0.296875 57.0625 -0.890625 C 56.507812 -1.492188 56.234375 -2.207031 56.234375 -3.03125 Z M 56.234375 -3.03125 "/></g></g></g><g fill="#000000" fill-opacity="1"><g transform="translate(8.89015, 114.963395)"><g><path d="M 23.375 1.65625 C 21.457031 1.65625 19.613281 1.25 17.84375 0.4375 C 17.03125 4.132812 16.328125 7.457031 15.734375 10.40625 C 15.140625 13.363281 14.625 16.171875 14.1875 18.828125 C 13.8125 21.265625 14.84375 22.816406 17.28125 23.484375 L 20.046875 24.375 L 19.828125 25.484375 L -6.875 25.484375 L -6.640625 24.375 L -4.546875 23.828125 C -1.960938 23.085938 -0.410156 21.421875 0.109375 18.828125 L 12.625 -40.890625 C 13.144531 -43.765625 12.113281 -45.796875 9.53125 -46.984375 L 7.421875 -47.859375 L 7.640625 -49.078125 L 28.140625 -55.0625 L 29.25 -54.1875 L 26.921875 -42.546875 C 29.804688 -46.160156 33.113281 -49.128906 36.84375 -51.453125 C 40.570312 -53.785156 44.0625 -54.953125 47.3125 -54.953125 C 50.34375 -54.953125 52.960938 -53.878906 55.171875 -51.734375 C 57.390625 -49.597656 58.5 -45.722656 58.5 -40.109375 C 58.5 -36.046875 57.816406 -32.019531 56.453125 -28.03125 C 55.085938 -24.039062 53.203125 -20.253906 50.796875 -16.671875 C 48.398438 -13.085938 45.6875 -9.929688 42.65625 -7.203125 C 39.625 -4.472656 36.445312 -2.3125 33.125 -0.71875 C 29.800781 0.863281 26.550781 1.65625 23.375 1.65625 Z M 37.671875 -46.75 C 35.972656 -46.75 34.125 -46.082031 32.125 -44.75 C 30.132812 -43.425781 28.179688 -41.582031 26.265625 -39.21875 L 19.71875 -7.203125 C 22.457031 -4.472656 25.300781 -3.109375 28.25 -3.109375 C 32.613281 -3.109375 36.195312 -5.394531 39 -9.96875 C 40.03125 -11.738281 40.988281 -13.988281 41.875 -16.71875 C 42.757812 -19.457031 43.476562 -22.429688 44.03125 -25.640625 C 44.59375 -28.859375 44.875 -31.984375 44.875 -35.015625 C 44.875 -38.703125 44.265625 -41.578125 43.046875 -43.640625 C 41.828125 -45.710938 40.035156 -46.75 37.671875 -46.75 Z M 37.671875 -46.75 "/></g></g></g><g fill="#000000" fill-opacity="1"><g transform="translate(61.289092, 114.963395)"><g><path d="M 17.171875 1.65625 C 15.109375 1.65625 13.148438 1.175781 11.296875 0.21875 C 9.453125 -0.738281 7.957031 -2.320312 6.8125 -4.53125 C 5.664062 -6.75 5.09375 -9.671875 5.09375 -13.296875 C 5.09375 -17.210938 5.867188 -21.144531 7.421875 -25.09375 C 8.972656 -29.039062 11.039062 -32.804688 13.625 -36.390625 C 16.207031 -39.972656 19.085938 -43.148438 22.265625 -45.921875 C 25.441406 -48.691406 28.726562 -50.890625 32.125 -52.515625 C 35.53125 -54.140625 38.742188 -54.953125 41.765625 -54.953125 C 43.242188 -54.953125 44.628906 -54.675781 45.921875 -54.125 C 47.210938 -53.570312 48.453125 -52.816406 49.640625 -51.859375 L 58.609375 -55.28125 L 59.5 -54.734375 L 49.859375 -12.296875 C 49.335938 -10.234375 49.078125 -8.535156 49.078125 -7.203125 C 49.078125 -5.648438 49.78125 -4.875 51.1875 -4.875 C 52.21875 -4.875 53.414062 -5.351562 54.78125 -6.3125 C 56.15625 -7.269531 57.726562 -8.5625 59.5 -10.1875 L 60.390625 -9.3125 C 59.273438 -7.53125 57.882812 -5.804688 56.21875 -4.140625 C 54.5625 -2.484375 52.71875 -1.101562 50.6875 0 C 48.65625 1.101562 46.492188 1.65625 44.203125 1.65625 C 41.691406 1.65625 39.660156 0.898438 38.109375 -0.609375 C 36.554688 -2.117188 35.78125 -4.460938 35.78125 -7.640625 C 35.78125 -8.679688 35.816406 -9.679688 35.890625 -10.640625 C 32.941406 -7.316406 29.820312 -4.4375 26.53125 -2 C 23.25 0.4375 20.128906 1.65625 17.171875 1.65625 Z M 18.171875 -18.28125 C 18.171875 -14.363281 18.816406 -11.535156 20.109375 -9.796875 C 21.398438 -8.066406 23.117188 -7.203125 25.265625 -7.203125 C 27.035156 -7.203125 28.804688 -7.753906 30.578125 -8.859375 C 32.347656 -9.972656 34.269531 -11.5625 36.34375 -13.625 C 36.488281 -14.507812 36.671875 -15.429688 36.890625 -16.390625 L 43.875 -48.3125 C 42.914062 -49.488281 41.769531 -50.296875 40.4375 -50.734375 C 39.113281 -51.179688 37.929688 -51.40625 36.890625 -51.40625 C 33.710938 -51.40625 30.390625 -49.523438 26.921875 -45.765625 C 24.191406 -42.734375 22.050781 -38.742188 20.5 -33.796875 C 18.945312 -28.847656 18.171875 -23.675781 18.171875 -18.28125 Z M 18.171875 -18.28125 "/></g></g></g><g fill="#000000" fill-opacity="1"><g transform="translate(117.676169, 114.963395)"><g><path d="M 23.375 1.65625 C 21.457031 1.65625 19.613281 1.25 17.84375 0.4375 C 17.03125 4.132812 16.328125 7.457031 15.734375 10.40625 C 15.140625 13.363281 14.625 16.171875 14.1875 18.828125 C 13.8125 21.265625 14.84375 22.816406 17.28125 23.484375 L 20.046875 24.375 L 19.828125 25.484375 L -6.875 25.484375 L -6.640625 24.375 L -4.546875 23.828125 C -1.960938 23.085938 -0.410156 21.421875 0.109375 18.828125 L 12.625 -40.890625 C 13.144531 -43.765625 12.113281 -45.796875 9.53125 -46.984375 L 7.421875 -47.859375 L 7.640625 -49.078125 L 28.140625 -55.0625 L 29.25 -54.1875 L 26.921875 -42.546875 C 29.804688 -46.160156 33.113281 -49.128906 36.84375 -51.453125 C 40.570312 -53.785156 44.0625 -54.953125 47.3125 -54.953125 C 50.34375 -54.953125 52.960938 -53.878906 55.171875 -51.734375 C 57.390625 -49.597656 58.5 -45.722656 58.5 -40.109375 C 58.5 -36.046875 57.816406 -32.019531 56.453125 -28.03125 C 55.085938 -24.039062 53.203125 -20.253906 50.796875 -16.671875 C 48.398438 -13.085938 45.6875 -9.929688 42.65625 -7.203125 C 39.625 -4.472656 36.445312 -2.3125 33.125 -0.71875 C 29.800781 0.863281 26.550781 1.65625 23.375 1.65625 Z M 37.671875 -46.75 C 35.972656 -46.75 34.125 -46.082031 32.125 -44.75 C 30.132812 -43.425781 28.179688 -41.582031 26.265625 -39.21875 L 19.71875 -7.203125 C 22.457031 -4.472656 25.300781 -3.109375 28.25 -3.109375 C 32.613281 -3.109375 36.195312 -5.394531 39 -9.96875 C 40.03125 -11.738281 40.988281 -13.988281 41.875 -16.71875 C 42.757812 -19.457031 43.476562 -22.429688 44.03125 -25.640625 C 44.59375 -28.859375 44.875 -31.984375 44.875 -35.015625 C 44.875 -38.703125 44.265625 -41.578125 43.046875 -43.640625 C 41.828125 -45.710938 40.035156 -46.75 37.671875 -46.75 Z M 37.671875 -46.75 "/></g></g></g><g fill="#000000" fill-opacity="1"><g transform="translate(170.07511, 114.963395)"><g><path d="M 24.375 1.65625 C 18.832031 1.65625 14.328125 -0.148438 10.859375 -3.765625 C 7.390625 -7.390625 5.65625 -12.523438 5.65625 -19.171875 C 5.65625 -23.898438 6.46875 -28.40625 8.09375 -32.6875 C 9.71875 -36.96875 11.988281 -40.785156 14.90625 -44.140625 C 17.820312 -47.503906 21.195312 -50.144531 25.03125 -52.0625 C 28.875 -53.988281 33.050781 -54.953125 37.5625 -54.953125 C 42.21875 -54.953125 45.78125 -53.898438 48.25 -51.796875 C 50.726562 -49.691406 51.96875 -46.90625 51.96875 -43.4375 C 51.96875 -40.550781 50.617188 -37.703125 47.921875 -34.890625 C 45.222656 -32.085938 41.4375 -29.5625 36.5625 -27.3125 C 31.6875 -25.0625 25.960938 -23.34375 19.390625 -22.15625 C 19.460938 -17.0625 20.566406 -13.332031 22.703125 -10.96875 C 24.847656 -8.601562 27.804688 -7.421875 31.578125 -7.421875 C 34.753906 -7.421875 37.671875 -8.285156 40.328125 -10.015625 C 42.984375 -11.753906 45.238281 -13.804688 47.09375 -16.171875 L 48.203125 -15.40625 C 46.722656 -12.519531 44.816406 -9.785156 42.484375 -7.203125 C 40.160156 -4.617188 37.484375 -2.492188 34.453125 -0.828125 C 31.429688 0.828125 28.070312 1.65625 24.375 1.65625 Z M 36.78125 -51.96875 C 35.082031 -51.96875 33.253906 -51.226562 31.296875 -49.75 C 29.335938 -48.269531 27.488281 -46.253906 25.75 -43.703125 C 24.019531 -41.160156 22.582031 -38.242188 21.4375 -34.953125 C 20.289062 -31.671875 19.609375 -28.179688 19.390625 -24.484375 C 27.515625 -26.703125 33.289062 -29.617188 36.71875 -33.234375 C 40.15625 -36.859375 41.875 -40.957031 41.875 -45.53125 C 41.875 -47.75 41.394531 -49.375 40.4375 -50.40625 C 39.476562 -51.445312 38.257812 -51.96875 36.78125 -51.96875 Z M 36.78125 -51.96875 "/></g></g></g><g fill="#000000" fill-opacity="1"><g transform="translate(215.051676, 114.963395)"><g><path d="M 5.09375 0.78125 L 3.984375 0 L 12.40625 -40.546875 C 12.78125 -42.472656 12.671875 -43.894531 12.078125 -44.8125 C 11.484375 -45.738281 10.484375 -46.5 9.078125 -47.09375 L 7.421875 -47.859375 L 7.640625 -48.96875 L 26.921875 -55.0625 L 28.03125 -54.0625 L 25.046875 -35.78125 C 26.585938 -39.332031 28.394531 -42.546875 30.46875 -45.421875 C 32.539062 -48.304688 34.71875 -50.613281 37 -52.34375 C 39.289062 -54.082031 41.582031 -54.953125 43.875 -54.953125 C 46.164062 -54.953125 48.007812 -54.34375 49.40625 -53.125 C 50.8125 -51.90625 51.515625 -50.300781 51.515625 -48.3125 C 51.515625 -46.238281 50.90625 -44.535156 49.6875 -43.203125 C 48.46875 -41.878906 46.828125 -41.21875 44.765625 -41.21875 C 43.140625 -41.21875 41.585938 -41.640625 40.109375 -42.484375 C 38.628906 -43.335938 37.1875 -44.578125 35.78125 -46.203125 C 33.195312 -44.285156 30.984375 -41.789062 29.140625 -38.71875 C 27.296875 -35.65625 25.597656 -32.316406 24.046875 -28.703125 L 22.9375 -23.59375 C 22.125 -19.6875 21.347656 -15.773438 20.609375 -11.859375 C 19.867188 -7.941406 19.128906 -3.988281 18.390625 0 Z M 5.09375 0.78125 "/></g></g></g><g fill="#000000" fill-opacity="1"><g transform="translate(256.704782, 114.963395)"><g/></g></g><g fill="#000000" fill-opacity="1"><g transform="translate(275.647646, 114.963395)"><g><path d="M 36.890625 1.65625 C 27.140625 1.65625 19.695312 -0.535156 14.5625 -4.921875 C 9.4375 -9.316406 6.875 -15.0625 6.875 -22.15625 C 6.875 -25.550781 7.628906 -28.835938 9.140625 -32.015625 C 10.648438 -35.191406 12.789062 -38.035156 15.5625 -40.546875 C 18.332031 -43.054688 21.53125 -45.015625 25.15625 -46.421875 C 23.53125 -49.078125 22.71875 -51.847656 22.71875 -54.734375 C 22.71875 -58.347656 23.710938 -61.6875 25.703125 -64.75 C 27.703125 -67.820312 30.488281 -70.316406 34.0625 -72.234375 C 37.644531 -74.160156 41.765625 -75.125 46.421875 -75.125 C 51.890625 -75.125 56.15625 -74.179688 59.21875 -72.296875 C 62.28125 -70.410156 63.851562 -67.804688 63.9375 -64.484375 C 63.9375 -63.003906 63.472656 -61.671875 62.546875 -60.484375 C 61.617188 -59.304688 60.125 -58.71875 58.0625 -58.71875 C 54.65625 -58.71875 52.140625 -61.046875 50.515625 -65.703125 L 49.96875 -67.59375 C 49.445312 -69.289062 48.59375 -70.5625 47.40625 -71.40625 C 46.226562 -72.257812 44.789062 -72.460938 43.09375 -72.015625 C 41.394531 -71.796875 39.675781 -71.054688 37.9375 -69.796875 C 36.207031 -68.546875 34.785156 -66.789062 33.671875 -64.53125 C 32.566406 -62.28125 32.015625 -59.457031 32.015625 -56.0625 C 32.015625 -54.726562 32.144531 -53.414062 32.40625 -52.125 C 32.664062 -50.832031 33.054688 -49.632812 33.578125 -48.53125 C 34.753906 -48.675781 35.929688 -48.75 37.109375 -48.75 C 44.578125 -48.75 48.3125 -46.71875 48.3125 -42.65625 C 48.3125 -41.03125 47.753906 -39.738281 46.640625 -38.78125 C 45.535156 -37.820312 43.835938 -37.34375 41.546875 -37.34375 C 38.816406 -37.34375 36.234375 -37.894531 33.796875 -39 C 31.359375 -40.101562 29.253906 -41.582031 27.484375 -43.4375 C 25.191406 -41.582031 23.359375 -39.210938 21.984375 -36.328125 C 20.617188 -33.453125 19.9375 -30.316406 19.9375 -26.921875 C 19.9375 -21.015625 21.910156 -16.523438 25.859375 -13.453125 C 29.816406 -10.390625 34.75 -8.859375 40.65625 -8.859375 C 47.53125 -8.859375 52.664062 -10.039062 56.0625 -12.40625 C 59.457031 -14.769531 61.15625 -17.6875 61.15625 -21.15625 C 61.15625 -24.039062 60.285156 -26.3125 58.546875 -27.96875 C 56.816406 -29.632812 53.585938 -30.691406 48.859375 -31.140625 L 49.53125 -34.5625 C 56.25 -35.300781 61.582031 -37.515625 65.53125 -41.203125 C 69.488281 -44.898438 72.613281 -50.113281 74.90625 -56.84375 L 85.3125 -52.078125 C 83.394531 -48.304688 81.289062 -45.050781 79 -42.3125 C 76.707031 -39.582031 73.898438 -37.382812 70.578125 -35.71875 C 67.253906 -34.0625 63.082031 -32.976562 58.0625 -32.46875 C 60.789062 -31.5 62.835938 -29.90625 64.203125 -27.6875 C 65.566406 -25.476562 66.25 -23.117188 66.25 -20.609375 C 66.25 -16.398438 64.972656 -12.613281 62.421875 -9.25 C 59.878906 -5.882812 56.390625 -3.222656 51.953125 -1.265625 C 47.523438 0.679688 42.503906 1.65625 36.890625 1.65625 Z M 36.890625 1.65625 "/></g></g></g></g></g></svg>