<svg xmlns="http://www.w3.org/2000/svg" xmlns:xlink="http://www.w3.org/1999/xlink" width="500" zoomAndPan="magnify" viewBox="0 0 375 374.999991" height="500" preserveAspectRatio="xMidYMid meet" version="1.0"><defs><clipPath id="f5948a11fa"><path d="M 50.621094 50.621094 L 324.371094 50.621094 L 324.371094 324.371094 L 50.621094 324.371094 Z M 50.621094 50.621094 " clip-rule="nonzero"/></clipPath></defs><g clip-path="url(#f5948a11fa)"><path fill="#000000" d="M 187.496094 50.621094 C 111.902344 50.621094 50.621094 111.902344 50.621094 187.496094 C 50.621094 263.089844 111.902344 324.371094 187.496094 324.371094 C 263.089844 324.371094 324.371094 263.089844 324.371094 187.496094 C 324.371094 111.902344 263.089844 50.621094 187.496094 50.621094 Z M 187.496094 314.003906 C 117.628906 314.003906 60.988281 257.363281 60.988281 187.496094 C 60.988281 117.628906 117.628906 60.988281 187.496094 60.988281 C 257.363281 60.988281 314.003906 117.628906 314.003906 187.496094 C 314.003906 257.363281 257.363281 314.003906 187.496094 314.003906 Z M 187.496094 314.003906 " fill-opacity="1" fill-rule="nonzero"/></g><path fill="#000000" d="M 171.429688 254.589844 C 168 254.917969 165.257812 255.296875 162.503906 255.425781 C 146.886719 256.164062 135.324219 250.007812 128.3125 235.648438 C 126.078125 231.078125 123.21875 226.761719 120.242188 222.621094 C 118.453125 220.132812 115.949219 218.132812 113.632812 216.0625 L 113.605469 216.035156 C 112.175781 214.777344 112.808594 212.421875 114.6875 212.105469 C 116.894531 211.734375 118.949219 212.132812 120.957031 212.644531 C 127.234375 214.242188 131.265625 218.695312 134.476562 224.019531 C 141.738281 236.058594 154.246094 241.082031 167.773438 237.496094 C 170.070312 236.886719 171.082031 235.898438 171.582031 233.394531 C 172.164062 230.472656 172.957031 227.59375 173.808594 224.660156 C 173.933594 224.226562 174.011719 223.785156 174.050781 223.335938 C 174.085938 222.890625 174.074219 222.441406 174.019531 221.996094 C 173.964844 221.546875 173.863281 221.113281 173.722656 220.683594 C 173.578125 220.257812 173.390625 219.851562 173.164062 219.460938 C 172.9375 219.074219 172.675781 218.710938 172.375 218.378906 C 172.074219 218.042969 171.742188 217.742188 171.378906 217.472656 C 171.019531 217.203125 170.632812 216.976562 170.226562 216.785156 C 169.816406 216.597656 169.394531 216.449219 168.957031 216.347656 L 168.878906 216.328125 C 154.847656 212.972656 142.722656 206.71875 134.914062 193.894531 C 130.734375 187.039062 128.667969 179.484375 128.777344 171.613281 C 128.894531 162.6875 129.6875 153.738281 130.710938 144.859375 C 131.433594 138.609375 134.328125 133.074219 138.824219 128.578125 C 140.390625 127.011719 140.523438 125.695312 139.765625 123.667969 C 136.671875 115.359375 137.210938 107.035156 139.957031 98.710938 C 140.734375 96.363281 141.832031 96.027344 144.078125 96.734375 C 151.035156 98.921875 156.222656 103.445312 160.78125 108.867188 L 160.828125 108.921875 C 161.398438 109.609375 162.0625 110.199219 162.808594 110.6875 C 163.558594 111.179688 164.363281 111.546875 165.226562 111.796875 C 166.085938 112.046875 166.960938 112.164062 167.859375 112.148438 C 168.753906 112.132812 169.625 111.988281 170.476562 111.710938 C 184.90625 106.980469 206.800781 106.917969 220.40625 111.597656 C 221.261719 111.890625 222.140625 112.046875 223.042969 112.070312 C 223.949219 112.09375 224.832031 111.984375 225.703125 111.742188 C 226.574219 111.496094 227.386719 111.128906 228.144531 110.636719 C 228.902344 110.144531 229.570312 109.554688 230.148438 108.859375 L 230.191406 108.808594 C 234.757812 103.390625 239.96875 98.902344 246.917969 96.707031 C 249.25 95.96875 250.242188 96.53125 250.980469 98.796875 C 253.691406 107.125 254.152344 115.402344 251.222656 123.792969 C 250.808594 124.976562 250.824219 127.03125 251.558594 127.777344 C 257.789062 134.097656 260.519531 141.941406 261.210938 150.441406 C 261.878906 158.65625 262.601562 167.007812 261.839844 175.164062 C 259.855469 196.371094 246.960938 208.722656 227.351562 214.863281 C 225.675781 215.386719 223.96875 215.828125 222.230469 216.242188 C 221.777344 216.347656 221.339844 216.5 220.921875 216.699219 C 220.5 216.898438 220.105469 217.136719 219.734375 217.417969 C 219.363281 217.699219 219.027344 218.015625 218.722656 218.371094 C 218.421875 218.722656 218.15625 219.101562 217.933594 219.507812 C 217.710938 219.917969 217.53125 220.34375 217.394531 220.789062 C 217.261719 221.234375 217.175781 221.6875 217.136719 222.152344 C 217.097656 222.613281 217.105469 223.078125 217.164062 223.539062 C 217.222656 224 217.328125 224.449219 217.480469 224.890625 C 220.152344 232.628906 219.742188 240.898438 219.703125 249.117188 C 219.691406 251.003906 219.6875 252.894531 219.683594 254.785156 C 219.679688 255.566406 219.640625 256.34375 219.5625 257.121094 C 219.484375 257.894531 219.367188 258.667969 219.214844 259.429688 C 219.0625 260.195312 218.871094 260.953125 218.644531 261.699219 C 218.414062 262.445312 218.152344 263.179688 217.851562 263.898438 C 217.550781 264.617188 217.21875 265.324219 216.847656 266.011719 C 216.480469 266.699219 216.078125 267.367188 215.644531 268.015625 C 215.210938 268.660156 214.746094 269.289062 214.25 269.890625 C 213.753906 270.492188 213.230469 271.070312 212.675781 271.621094 C 212.125 272.171875 211.546875 272.695312 210.941406 273.1875 C 210.339844 273.683594 209.710938 274.148438 209.0625 274.578125 C 208.414062 275.011719 207.746094 275.414062 207.058594 275.78125 C 206.367188 276.148438 205.664062 276.480469 204.941406 276.777344 C 204.222656 277.078125 203.488281 277.339844 202.742188 277.566406 C 201.996094 277.789062 201.238281 277.980469 200.472656 278.132812 C 199.707031 278.285156 198.9375 278.398438 198.160156 278.472656 C 197.382812 278.550781 196.605469 278.589844 195.824219 278.589844 L 195.289062 278.589844 C 194.507812 278.589844 193.726562 278.550781 192.949219 278.472656 C 192.171875 278.398438 191.398438 278.28125 190.632812 278.128906 C 189.867188 277.976562 189.109375 277.789062 188.363281 277.5625 C 187.613281 277.335938 186.878906 277.070312 186.160156 276.773438 C 185.4375 276.472656 184.730469 276.140625 184.042969 275.769531 C 183.351562 275.402344 182.683594 275 182.035156 274.566406 C 181.382812 274.132812 180.757812 273.667969 180.152344 273.171875 C 179.550781 272.675781 178.972656 272.152344 178.417969 271.601562 C 177.867188 271.046875 177.34375 270.46875 176.847656 269.867188 C 176.351562 269.261719 175.886719 268.636719 175.453125 267.984375 C 175.015625 267.335938 174.617188 266.667969 174.246094 265.976562 C 173.878906 265.289062 173.546875 264.582031 173.246094 263.859375 C 172.949219 263.140625 172.683594 262.402344 172.457031 261.65625 C 172.230469 260.910156 172.042969 260.152344 171.890625 259.386719 C 171.738281 258.617188 171.621094 257.847656 171.546875 257.070312 C 171.46875 256.292969 171.429688 255.511719 171.429688 254.730469 Z M 171.429688 254.589844 " fill-opacity="1" fill-rule="nonzero"/></svg>