<svg xmlns="http://www.w3.org/2000/svg" xmlns:xlink="http://www.w3.org/1999/xlink" width="500" zoomAndPan="magnify" viewBox="0 0 375 374.999991" height="500" preserveAspectRatio="xMidYMid meet" version="1.0"><defs><clipPath id="f2f39581f5"><path d="M 23.515625 23.105469 L 351.265625 23.105469 L 351.265625 351 L 23.515625 351 Z M 23.515625 23.105469 " clip-rule="nonzero"/></clipPath></defs><g clip-path="url(#f2f39581f5)"><path fill="#000000" d="M 151.765625 23.160156 C 120.40625 23.160156 94.765625 48.792969 94.765625 80.148438 C 94.765625 106.542969 115.8125 132.613281 136.167969 153.582031 C 156.519531 174.542969 177.015625 189.914062 178.875 191.296875 C 181.390625 193.171875 184.402344 194.121094 187.390625 194.121094 C 190.378906 194.121094 193.371094 193.183594 195.878906 191.328125 C 195.890625 191.316406 195.898438 191.308594 195.90625 191.296875 C 197.699219 189.964844 218.261719 174.546875 238.617188 153.582031 C 258.972656 132.613281 280.015625 106.542969 280.015625 80.148438 C 280.015625 48.785156 254.375 23.160156 223.015625 23.160156 C 206.730469 23.160156 195.355469 30.5 187.390625 37.28125 C 179.429688 30.5 168.054688 23.160156 151.765625 23.160156 Z M 151.765625 37.40625 C 166.003906 37.40625 176.449219 45.152344 182.355469 51.070312 C 182.683594 51.398438 183.042969 51.695312 183.433594 51.953125 C 183.824219 52.214844 184.234375 52.433594 184.664062 52.613281 C 185.097656 52.792969 185.542969 52.925781 186 53.015625 C 186.460938 53.109375 186.921875 53.15625 187.390625 53.15625 C 187.859375 53.15625 188.324219 53.109375 188.78125 53.015625 C 189.238281 52.925781 189.6875 52.792969 190.117188 52.613281 C 190.550781 52.433594 190.960938 52.214844 191.347656 51.953125 C 191.738281 51.695312 192.097656 51.398438 192.429688 51.070312 C 198.335938 45.152344 208.777344 37.40625 223.015625 37.40625 C 246.648438 37.40625 265.765625 56.515625 265.765625 80.148438 C 265.765625 98.222656 247.839844 123.636719 228.402344 143.660156 C 208.96875 163.675781 188.925781 178.730469 187.390625 179.875 C 185.929688 178.789062 165.820312 163.683594 146.382812 143.660156 C 126.941406 123.636719 109.015625 98.222656 109.015625 80.148438 C 109.015625 56.523438 128.136719 37.40625 151.765625 37.40625 Z M 48.023438 59.582031 C 34.171875 60.832031 23.515625 72.53125 23.515625 86.339844 L 23.515625 231.5625 C 23.515625 243.703125 28.679688 255.28125 37.726562 263.382812 L 90.050781 310.269531 C 97.59375 317.035156 101.890625 326.675781 101.890625 336.800781 L 101.890625 343.714844 C 101.886719 344.1875 101.925781 344.65625 102.011719 345.121094 C 102.097656 345.585938 102.230469 346.035156 102.40625 346.472656 C 102.582031 346.910156 102.796875 347.328125 103.058594 347.722656 C 103.316406 348.117188 103.609375 348.484375 103.941406 348.820312 C 104.273438 349.15625 104.636719 349.453125 105.027344 349.71875 C 105.417969 349.984375 105.832031 350.207031 106.265625 350.390625 C 106.703125 350.570312 107.152344 350.707031 107.613281 350.800781 C 108.078125 350.894531 108.542969 350.941406 109.015625 350.941406 C 109.488281 350.941406 109.957031 350.894531 110.417969 350.800781 C 110.882812 350.707031 111.332031 350.570312 111.765625 350.390625 C 112.203125 350.207031 112.617188 349.984375 113.007812 349.71875 C 113.398438 349.453125 113.757812 349.15625 114.089844 348.820312 C 114.421875 348.484375 114.71875 348.117188 114.976562 347.722656 C 115.234375 347.328125 115.453125 346.910156 115.628906 346.472656 C 115.804688 346.035156 115.9375 345.585938 116.023438 345.121094 C 116.109375 344.65625 116.148438 344.1875 116.140625 343.714844 L 116.140625 336.800781 C 116.140625 322.636719 110.105469 309.128906 99.554688 299.667969 L 47.242188 252.78125 C 47.242188 252.777344 47.242188 252.769531 47.242188 252.765625 C 41.210938 247.363281 37.765625 239.667969 37.765625 231.5625 L 37.765625 86.339844 C 37.765625 79.777344 42.625 74.382812 49.289062 73.773438 C 56.269531 73.1875 62.273438 78.269531 62.953125 85.324219 L 70.203125 160.230469 C 70.21875 160.398438 70.234375 160.566406 70.261719 160.730469 C 69.996094 160.960938 69.699219 161.128906 69.4375 161.371094 C 57.984375 172.089844 57.066406 190.15625 67.394531 201.96875 L 114.25 255.578125 C 114.554688 255.933594 114.894531 256.257812 115.265625 256.546875 C 115.636719 256.835938 116.03125 257.085938 116.449219 257.296875 C 116.871094 257.507812 117.308594 257.675781 117.761719 257.800781 C 118.214844 257.925781 118.675781 258.003906 119.144531 258.039062 C 119.613281 258.070312 120.082031 258.058594 120.550781 258 C 121.015625 257.941406 121.472656 257.835938 121.917969 257.6875 C 122.363281 257.539062 122.789062 257.34375 123.199219 257.109375 C 123.605469 256.878906 123.988281 256.605469 124.34375 256.296875 C 124.695312 255.988281 125.015625 255.644531 125.304688 255.273438 C 125.589844 254.898438 125.835938 254.503906 126.042969 254.082031 C 126.253906 253.660156 126.417969 253.21875 126.539062 252.765625 C 126.660156 252.3125 126.734375 251.847656 126.765625 251.378906 C 126.792969 250.910156 126.777344 250.441406 126.714844 249.976562 C 126.652344 249.511719 126.542969 249.054688 126.390625 248.609375 C 126.234375 248.167969 126.039062 247.742188 125.804688 247.335938 C 125.566406 246.929688 125.289062 246.550781 124.976562 246.199219 L 78.121094 192.59375 C 72.746094 186.441406 73.207031 177.355469 79.167969 171.777344 C 84.988281 166.335938 93.855469 166.328125 99.679688 171.765625 L 164.445312 232.300781 C 174.53125 241.726562 180.265625 254.910156 180.265625 268.726562 L 180.265625 343.714844 C 180.261719 344.164062 180.296875 344.605469 180.375 345.046875 C 180.453125 345.484375 180.570312 345.914062 180.726562 346.332031 C 180.886719 346.75 181.082031 347.148438 181.3125 347.53125 C 181.546875 347.910156 181.8125 348.265625 182.113281 348.597656 C 182.414062 348.925781 182.742188 349.226562 183.097656 349.496094 C 183.457031 349.765625 183.832031 350 184.234375 350.195312 C 184.632812 350.394531 185.050781 350.554688 185.480469 350.671875 C 185.910156 350.792969 186.347656 350.871094 186.792969 350.910156 C 187.027344 350.929688 187.265625 350.941406 187.503906 350.9375 C 187.96875 350.929688 188.433594 350.875 188.890625 350.777344 C 189.347656 350.679688 189.789062 350.539062 190.21875 350.351562 C 190.648438 350.167969 191.054688 349.941406 191.4375 349.675781 C 191.824219 349.414062 192.179688 349.113281 192.503906 348.777344 C 192.828125 348.441406 193.117188 348.078125 193.371094 347.6875 C 193.625 347.292969 193.839844 346.878906 194.011719 346.445312 C 194.183594 346.011719 194.3125 345.566406 194.398438 345.105469 C 194.484375 344.648438 194.523438 344.183594 194.515625 343.714844 L 194.515625 268.726562 C 194.515625 254.917969 200.25 241.726562 210.339844 232.300781 L 275.105469 171.765625 C 280.929688 166.320312 289.796875 166.328125 295.617188 171.777344 C 301.574219 177.355469 302.03125 186.453125 296.660156 192.59375 L 249.804688 246.199219 C 249.492188 246.550781 249.21875 246.929688 248.980469 247.335938 C 248.742188 247.742188 248.546875 248.167969 248.394531 248.613281 C 248.242188 249.054688 248.132812 249.511719 248.070312 249.976562 C 248.007812 250.441406 247.988281 250.910156 248.019531 251.378906 C 248.046875 251.847656 248.125 252.3125 248.246094 252.765625 C 248.367188 253.21875 248.53125 253.660156 248.738281 254.082031 C 248.945312 254.503906 249.191406 254.898438 249.480469 255.273438 C 249.765625 255.644531 250.085938 255.988281 250.441406 256.296875 C 250.796875 256.605469 251.175781 256.878906 251.585938 257.113281 C 251.992188 257.34375 252.417969 257.539062 252.863281 257.6875 C 253.3125 257.835938 253.765625 257.941406 254.234375 258 C 254.699219 258.058594 255.167969 258.070312 255.636719 258.039062 C 256.105469 258.003906 256.566406 257.925781 257.019531 257.800781 C 257.476562 257.675781 257.910156 257.507812 258.332031 257.296875 C 258.753906 257.085938 259.148438 256.835938 259.519531 256.546875 C 259.890625 256.257812 260.226562 255.933594 260.535156 255.578125 L 307.390625 201.96875 L 307.375 201.96875 C 317.707031 190.160156 316.796875 172.09375 305.34375 161.371094 C 305.085938 161.132812 304.785156 160.972656 304.523438 160.746094 C 304.546875 160.574219 304.566406 160.402344 304.578125 160.230469 L 311.828125 85.324219 C 312.511719 78.273438 318.507812 73.195312 325.480469 73.773438 C 325.480469 73.773438 325.492188 73.773438 325.492188 73.773438 C 332.15625 74.382812 337.015625 79.777344 337.015625 86.339844 L 337.015625 231.5625 C 337.015625 239.667969 333.570312 247.378906 327.539062 252.78125 L 275.230469 299.679688 C 264.679688 309.136719 258.640625 322.640625 258.640625 336.800781 L 258.640625 343.714844 C 258.636719 344.1875 258.675781 344.65625 258.761719 345.121094 C 258.847656 345.585938 258.980469 346.035156 259.15625 346.472656 C 259.332031 346.910156 259.546875 347.328125 259.808594 347.722656 C 260.066406 348.117188 260.359375 348.480469 260.691406 348.820312 C 261.023438 349.15625 261.386719 349.453125 261.777344 349.71875 C 262.167969 349.984375 262.582031 350.207031 263.015625 350.390625 C 263.453125 350.570312 263.902344 350.707031 264.363281 350.800781 C 264.828125 350.894531 265.292969 350.941406 265.765625 350.941406 C 266.238281 350.941406 266.707031 350.894531 267.167969 350.800781 C 267.632812 350.707031 268.082031 350.570312 268.515625 350.390625 C 268.953125 350.207031 269.367188 349.984375 269.757812 349.71875 C 270.148438 349.453125 270.507812 349.15625 270.839844 348.820312 C 271.171875 348.480469 271.46875 348.117188 271.726562 347.722656 C 271.984375 347.328125 272.203125 346.910156 272.378906 346.472656 C 272.554688 346.035156 272.683594 345.585938 272.773438 345.121094 C 272.859375 344.65625 272.898438 344.1875 272.890625 343.714844 L 272.890625 336.800781 C 272.890625 326.675781 277.191406 317.039062 284.734375 310.28125 L 337.058594 263.382812 C 346.097656 255.277344 351.265625 243.699219 351.265625 231.5625 L 351.265625 86.339844 C 351.265625 72.53125 340.609375 60.832031 326.761719 59.582031 C 326.746094 59.582031 326.734375 59.582031 326.71875 59.582031 C 312.042969 58.328125 299.058594 69.347656 297.648438 83.945312 L 290.871094 154.039062 C 289.050781 153.695312 287.207031 153.511719 285.359375 153.511719 C 278.167969 153.507812 270.976562 156.121094 265.375 161.359375 L 200.597656 221.894531 C 195.136719 226.996094 190.734375 232.988281 187.390625 239.507812 C 184.050781 232.988281 179.648438 226.996094 174.183594 221.894531 L 109.40625 161.359375 C 103.804688 156.128906 96.617188 153.507812 89.421875 153.511719 C 87.578125 153.511719 85.730469 153.695312 83.910156 154.039062 L 77.136719 83.945312 C 75.722656 69.347656 62.738281 58.328125 48.0625 59.582031 C 48.050781 59.582031 48.035156 59.582031 48.023438 59.582031 Z M 48.023438 59.582031 " fill-opacity="1" fill-rule="nonzero"/></g></svg>