<svg xmlns="http://www.w3.org/2000/svg" xmlns:xlink="http://www.w3.org/1999/xlink" width="500" zoomAndPan="magnify" viewBox="0 0 375 374.999991" height="500" preserveAspectRatio="xMidYMid meet" version="1.0"><defs><clipPath id="a5f46816fd"><path d="M 46.960938 46.960938 L 320.710938 46.960938 L 320.710938 320.710938 L 46.960938 320.710938 Z M 46.960938 46.960938 " clip-rule="nonzero"/></clipPath></defs><g clip-path="url(#a5f46816fd)"><path fill="#000000" d="M 108.46875 46.960938 L 258.714844 46.960938 C 275.695312 46.960938 291.070312 53.847656 302.285156 65.0625 C 313.335938 76.113281 320.382812 91.652344 320.382812 108.46875 L 320.382812 258.714844 C 320.382812 275.695312 313.335938 291.070312 302.285156 302.285156 C 291.070312 313.335938 275.695312 320.382812 258.714844 320.382812 L 108.46875 320.382812 C 91.652344 320.382812 76.113281 313.335938 65.0625 302.285156 C 53.847656 291.070312 46.960938 275.695312 46.960938 258.714844 L 46.960938 108.46875 C 46.960938 91.652344 53.847656 76.113281 65.0625 65.0625 C 76.113281 53.847656 91.652344 46.960938 108.46875 46.960938 Z M 258.714844 71.308594 L 108.46875 71.308594 C 98.21875 71.308594 88.925781 75.472656 82.199219 82.199219 C 75.472656 88.925781 71.308594 98.21875 71.308594 108.46875 L 71.308594 258.714844 C 71.308594 268.964844 75.472656 278.257812 82.199219 284.984375 C 88.925781 291.871094 98.21875 296.035156 108.46875 296.035156 L 258.714844 296.035156 C 268.964844 296.035156 278.257812 291.871094 284.984375 284.984375 C 291.871094 278.257812 296.035156 268.964844 296.035156 258.714844 L 296.035156 108.46875 C 296.035156 98.21875 291.871094 88.925781 284.984375 82.199219 C 278.257812 75.472656 268.964844 71.308594 258.714844 71.308594 Z M 258.714844 71.308594 " fill-opacity="1" fill-rule="nonzero"/></g><path fill="#000000" d="M 260.316406 94.695312 C 263.679688 94.695312 266.882812 95.976562 268.964844 98.21875 C 271.207031 100.460938 272.652344 103.503906 272.652344 106.867188 C 272.652344 110.230469 271.207031 113.433594 268.964844 115.515625 C 266.882812 117.757812 263.679688 119.199219 260.316406 119.199219 C 256.953125 119.199219 253.910156 117.757812 251.667969 115.515625 C 249.425781 113.433594 248.144531 110.230469 248.144531 106.867188 C 248.144531 103.503906 249.425781 100.460938 251.667969 98.21875 C 253.910156 95.976562 256.953125 94.695312 260.316406 94.695312 Z M 260.316406 94.695312 " fill-opacity="1" fill-rule="nonzero"/><path fill="#000000" d="M 183.59375 117.277344 C 202.011719 117.277344 218.511719 124.808594 230.523438 136.660156 C 242.539062 148.671875 250.066406 165.332031 250.066406 183.59375 C 250.066406 202.011719 242.539062 218.511719 230.523438 230.523438 C 218.511719 242.539062 202.011719 250.066406 183.59375 250.066406 C 165.332031 250.066406 148.671875 242.539062 136.660156 230.523438 C 124.808594 218.511719 117.277344 202.011719 117.277344 183.59375 C 117.277344 165.332031 124.808594 148.671875 136.660156 136.660156 C 148.671875 124.808594 165.332031 117.277344 183.59375 117.277344 Z M 213.226562 154.121094 C 205.695312 146.589844 195.125 141.785156 183.59375 141.785156 C 172.058594 141.785156 161.648438 146.589844 154.121094 154.121094 C 146.589844 161.648438 141.785156 172.058594 141.785156 183.59375 C 141.785156 195.125 146.589844 205.695312 154.121094 213.226562 C 161.648438 220.753906 172.058594 225.398438 183.59375 225.398438 C 195.125 225.398438 205.695312 220.753906 213.226562 213.226562 C 220.753906 205.695312 225.398438 195.125 225.398438 183.59375 C 225.398438 172.058594 220.753906 161.648438 213.226562 154.121094 Z M 213.226562 154.121094 " fill-opacity="1" fill-rule="nonzero"/></svg>