<svg xmlns="http://www.w3.org/2000/svg" xmlns:xlink="http://www.w3.org/1999/xlink" width="500" zoomAndPan="magnify" viewBox="0 0 375 374.999991" height="500" preserveAspectRatio="xMidYMid meet" version="1.0"><defs><clipPath id="3a193c7c95"><path d="M 50.621094 50.621094 L 324.371094 50.621094 L 324.371094 324.371094 L 50.621094 324.371094 Z M 50.621094 50.621094 " clip-rule="nonzero"/></clipPath></defs><g clip-path="url(#3a193c7c95)"><path fill="#000000" d="M 324.332031 187.484375 C 324.332031 196.9375 323.378906 206.164062 321.558594 215.078125 C 320.421875 220.652344 318.941406 226.09375 317.148438 231.398438 C 298.855469 285.449219 247.714844 324.332031 187.46875 324.332031 C 172.246094 324.332031 159.59375 322.101562 146.769531 318.164062 C 155.824219 304.828125 161.476562 290.972656 165.242188 276.265625 L 172.246094 247.859375 C 180.800781 258.644531 193.121094 264.628906 207.144531 264.628906 C 242.554688 264.628906 275.402344 229.734375 275.402344 183.199219 C 275.402344 136.667969 241.703125 99.554688 187.984375 99.554688 C 134.269531 99.554688 100.40625 135.816406 100.40625 181.316406 C 100.40625 207.660156 113.40625 226.996094 127.09375 226.996094 C 131.535156 226.996094 134.449219 226.132812 137.183594 221.515625 C 128.796875 212.625 124.527344 199.621094 124.527344 185.601562 C 124.527344 150.871094 148.820312 125.894531 187.136719 125.894531 C 221.515625 125.894531 244.789062 148.640625 244.789062 184.230469 C 244.789062 216.210938 227.847656 240.851562 204.074219 240.851562 C 190.722656 240.851562 180.296875 233.152344 180.296875 219.464844 C 180.296875 216.378906 180.800781 212.792969 182 209.027344 L 187.984375 189.355469 C 189.703125 183.882812 190.554688 179.097656 190.554688 174.816406 C 190.554688 161.308594 183.199219 154.289062 173.113281 154.289062 C 158.574219 154.289062 149.324219 167.976562 149.324219 187.136719 C 149.324219 195.339844 151.039062 203.558594 153.257812 210.742188 L 139.582031 269.761719 C 136.152344 284.132812 134.964844 299.007812 136.667969 314.578125 C 107.292969 302.8125 83.128906 281.320312 67.960938 254.21875 C 67.546875 253.484375 67.148438 252.746094 66.746094 252 C 65.148438 249.042969 63.664062 246.011719 62.308594 242.929688 C 61.972656 242.15625 61.636719 241.382812 61.304688 240.59375 C 60.632812 239.046875 60.011719 237.484375 59.417969 235.898438 C 59.433594 235.886719 59.417969 235.886719 59.417969 235.875 C 59.121094 235.074219 58.824219 234.285156 58.542969 233.488281 C 58.257812 232.6875 57.988281 231.886719 57.714844 231.085938 C 57.445312 230.273438 57.175781 229.460938 56.917969 228.648438 C 56.671875 227.835938 56.414062 227.023438 56.179688 226.199219 C 55.960938 225.460938 55.742188 224.714844 55.535156 223.964844 C 55.484375 223.757812 55.421875 223.539062 55.367188 223.320312 C 55.175781 222.636719 54.996094 221.941406 54.8125 221.242188 C 54.605469 220.417969 54.402344 219.578125 54.207031 218.742188 C 54.089844 218.238281 53.976562 217.734375 53.871094 217.230469 C 53.730469 216.691406 53.613281 216.148438 53.511719 215.605469 C 53.433594 215.230469 53.355469 214.859375 53.277344 214.472656 C 53.164062 213.941406 53.058594 213.414062 52.980469 212.882812 C 52.867188 212.304688 52.761719 211.722656 52.660156 211.128906 C 52.503906 210.277344 52.363281 209.414062 52.234375 208.5625 C 52.105469 207.699219 51.976562 206.835938 51.859375 205.96875 C 51.742188 205.15625 51.640625 204.34375 51.550781 203.519531 C 51.460938 202.746094 51.382812 201.96875 51.304688 201.195312 C 51.226562 200.578125 51.175781 199.957031 51.136719 199.339844 C 51.046875 198.382812 50.96875 197.429688 50.917969 196.460938 C 50.878906 196.011719 50.851562 195.558594 50.839844 195.105469 C 50.800781 194.628906 50.777344 194.152344 50.761719 193.675781 C 50.738281 193.199219 50.710938 192.707031 50.710938 192.230469 C 50.6875 191.597656 50.660156 190.964844 50.648438 190.335938 C 50.632812 189.378906 50.621094 188.4375 50.621094 187.484375 C 50.621094 182.761719 50.867188 178.089844 51.332031 173.484375 C 58.363281 104.519531 116.644531 50.6875 187.46875 50.6875 C 258.292969 50.6875 316.59375 104.519531 323.621094 173.484375 C 324.085938 178.089844 324.332031 182.761719 324.332031 187.484375 Z M 324.332031 187.484375 " fill-opacity="1" fill-rule="nonzero"/><path fill="#000000" d="M 324.332031 187.484375 C 324.332031 196.9375 323.378906 206.164062 321.558594 215.078125 C 320.410156 220.652344 318.941406 226.09375 317.148438 231.398438 C 298.855469 285.449219 247.714844 324.332031 187.46875 324.332031 C 172.246094 324.332031 159.59375 322.101562 146.769531 318.164062 C 155.824219 304.828125 161.476562 290.972656 165.242188 276.265625 L 172.246094 247.859375 C 180.800781 258.644531 193.121094 264.628906 207.144531 264.628906 C 242.554688 264.628906 275.402344 229.734375 275.402344 183.199219 C 275.402344 136.667969 241.703125 99.554688 187.984375 99.554688 C 134.269531 99.554688 100.40625 135.816406 100.40625 181.316406 C 100.40625 207.660156 113.40625 226.996094 127.09375 226.996094 C 131.535156 226.996094 134.449219 226.132812 137.183594 221.515625 C 128.796875 212.625 124.527344 199.621094 124.527344 185.601562 C 124.527344 150.871094 148.820312 125.894531 187.136719 125.894531 C 221.515625 125.894531 244.789062 148.640625 244.789062 184.230469 C 244.789062 216.210938 227.847656 240.851562 204.074219 240.851562 C 190.722656 240.851562 180.296875 233.152344 180.296875 219.464844 C 180.296875 216.378906 180.800781 212.792969 182 209.027344 L 187.984375 189.355469 C 189.703125 183.882812 190.554688 179.097656 190.554688 174.816406 C 190.554688 161.308594 183.199219 154.289062 173.113281 154.289062 C 158.574219 154.289062 149.324219 167.976562 149.324219 187.136719 C 149.324219 195.339844 151.039062 203.558594 153.257812 210.742188 L 139.582031 269.761719 C 136.152344 284.132812 134.964844 299.007812 136.667969 314.578125 C 107.292969 302.8125 83.128906 281.320312 67.960938 254.21875 C 67.546875 253.484375 67.148438 252.746094 66.746094 252 C 65.160156 249.042969 63.6875 246.011719 62.308594 242.929688 C 61.972656 242.15625 61.636719 241.382812 61.304688 240.59375 C 60.65625 239.046875 60.027344 237.472656 59.417969 235.898438 C 59.433594 235.886719 59.417969 235.886719 59.417969 235.875 C 59.121094 235.074219 58.824219 234.285156 58.542969 233.488281 C 58.257812 232.6875 57.988281 231.886719 57.714844 231.085938 C 57.445312 230.273438 57.175781 229.460938 56.917969 228.648438 C 56.671875 227.835938 56.414062 227.023438 56.179688 226.199219 C 55.960938 225.460938 55.742188 224.714844 55.535156 223.964844 C 55.484375 223.757812 55.421875 223.539062 55.367188 223.320312 C 55.175781 222.636719 54.996094 221.941406 54.8125 221.242188 C 54.605469 220.417969 54.402344 219.578125 54.207031 218.742188 C 54.089844 218.238281 53.976562 217.734375 53.871094 217.230469 C 53.730469 216.691406 53.613281 216.148438 53.511719 215.605469 C 53.433594 215.230469 53.355469 214.859375 53.277344 214.472656 C 53.164062 213.941406 53.058594 213.414062 52.980469 212.882812 C 52.867188 212.304688 52.761719 211.722656 52.660156 211.128906 C 52.503906 210.277344 52.363281 209.414062 52.234375 208.5625 C 52.105469 207.699219 51.976562 206.835938 51.859375 205.96875 C 51.742188 205.15625 51.640625 204.34375 51.550781 203.519531 C 51.460938 202.746094 51.382812 201.96875 51.304688 201.195312 C 51.226562 200.578125 51.175781 199.957031 51.136719 199.339844 C 51.046875 198.382812 50.96875 197.429688 50.917969 196.460938 C 50.878906 196.011719 50.851562 195.558594 50.839844 195.105469 C 50.800781 194.628906 50.777344 194.152344 50.761719 193.675781 C 50.738281 193.199219 50.710938 192.707031 50.710938 192.230469 C 50.6875 191.597656 50.660156 190.964844 50.648438 190.335938 C 50.632812 189.378906 50.621094 188.4375 50.621094 187.484375 C 50.621094 182.761719 50.867188 178.089844 51.332031 173.484375 C 58.335938 104.457031 116.582031 50.621094 187.46875 50.621094 C 258.359375 50.621094 316.617188 104.457031 323.621094 173.484375 C 324.085938 178.089844 324.332031 182.761719 324.332031 187.484375 Z M 324.332031 187.484375 " fill-opacity="1" fill-rule="nonzero"/></g></svg>